<svg width="49" height="43" viewBox="0 0 49 43" fill="none" xmlns="http://www.w3.org/2000/svg">
<path d="M13.192 22.6153H13.9429C16.0031 22.6153 17.8263 23.6276 19.4132 25.6493C21.0001 27.6717 21.7935 29.9806 21.7935 32.5802C21.7935 35.4706 20.8778 37.8978 19.0481 39.8617C17.2166 41.825 14.9426 42.8063 12.2273 42.8063C8.73325 42.8063 5.82236 41.1936 3.49401 37.9653C1.1627 34.7378 0 30.7014 0 25.8577C0 19.7475 1.7281 14.3941 5.1837 9.79737C8.6399 5.20067 13.41 1.93582 19.4935 0V3.71255C15.0702 7.39414 12.8606 12.2288 12.8606 18.2129L13.1944 22.6139L13.192 22.6153ZM46.7 0V3.53868C44.7096 4.92192 43.1062 6.97881 41.8897 9.7129C40.6738 12.4463 40.0659 15.3352 40.0659 18.3854C40.0659 19.8819 40.1764 21.2933 40.3997 22.6153C43.0146 22.7892 45.1025 23.7867 46.661 25.6071C48.2201 27.4274 49 29.7511 49 32.5802C49 35.4094 48.0441 37.8978 46.1317 39.8617C44.2186 41.825 41.8212 42.8063 38.938 42.8063C35.3335 42.8063 32.4108 41.2795 30.1664 38.223C27.9196 35.1693 26.7994 31.2195 26.7994 26.3757C26.7994 22.5147 27.5858 18.7613 29.1614 15.1163C30.7347 11.472 32.8504 8.51621 35.5049 6.25235C38.1576 3.9885 41.8885 1.90414 46.6988 0H46.7Z" fill="#D3DDDC"/>
</svg>
