<svg width="30" height="28" viewBox="0 0 30 28" fill="none" xmlns="http://www.w3.org/2000/svg">
<path d="M7.5 15.8825H17.2812V14.1839H7.5V15.8825ZM7.5 12.2021H22.5V10.5034H7.5V12.2021ZM7.5 8.52165H22.5V6.82298H7.5V8.52165ZM2.5 24.9138V3.96356C2.5 3.52946 2.6875 3.13782 3.0625 2.78865C3.4375 2.43948 3.875 2.26489 4.375 2.26489H25.625C26.1042 2.26489 26.5365 2.43948 26.9219 2.78865C27.3073 3.13782 27.5 3.52946 27.5 3.96356V18.6853C27.5 19.1195 27.3073 19.5111 26.9219 19.8603C26.5365 20.2094 26.1042 20.384 25.625 20.384H7.5L2.5 24.9138ZM4.375 20.8087L6.71875 18.6853H25.625V3.96356H4.375V20.8087Z" fill="#D3DDDC"/>
</svg>
