<svg width="30" height="28" viewBox="0 0 30 28" fill="none" xmlns="http://www.w3.org/2000/svg">
<path d="M12.0312 23.7814C10.9688 23.7814 10.0677 23.4227 9.32812 22.7055C8.58854 21.9883 8.16667 21.1767 8.0625 20.2708C6.83333 20.1764 5.80729 19.7093 4.98438 18.8694C4.16146 18.0295 3.75 17.0056 3.75 15.7976C3.75 15.3824 3.80729 14.9813 3.92188 14.5944C4.03646 14.2075 4.20833 13.8347 4.4375 13.4761C4.20833 13.1364 4.03646 12.7778 3.92188 12.4003C3.80729 12.0228 3.75 11.617 3.75 11.1829C3.75 10.0505 4.18229 9.07844 5.04688 8.26685C5.91146 7.45527 6.9375 6.98342 8.125 6.8513C8.16667 5.88872 8.56771 5.07241 9.32812 4.40238C10.0885 3.73235 11 3.39734 12.0625 3.39734C12.6667 3.39734 13.2031 3.49643 13.6719 3.69461C14.1406 3.89278 14.5833 4.18061 15 4.5581C15.4167 4.18061 15.8542 3.89278 16.3125 3.69461C16.7708 3.49643 17.3021 3.39734 17.9062 3.39734C18.9479 3.39734 19.8438 3.73235 20.5938 4.40238C21.3438 5.07241 21.75 5.88872 21.8125 6.8513C23.0208 6.94567 24.0625 7.40336 24.9375 8.22439C25.8125 9.04541 26.25 10.0316 26.25 11.1829C26.25 11.617 26.1875 12.0275 26.0625 12.4144C25.9375 12.8014 25.7604 13.1647 25.5312 13.5044C25.7604 13.8819 25.9375 14.2783 26.0625 14.6935C26.1875 15.1087 26.25 15.5145 26.25 15.9109C26.25 17.1188 25.8385 18.1238 25.0156 18.926C24.1927 19.7281 23.1667 20.1764 21.9375 20.2708C21.8333 21.1767 21.4062 21.9883 20.6562 22.7055C19.9062 23.4227 19.0104 23.7814 17.9688 23.7814C17.3438 23.7814 16.8021 23.687 16.3438 23.4982C15.8854 23.3095 15.4375 23.0264 15 22.6489C14.5625 23.0264 14.1146 23.3095 13.6562 23.4982C13.1979 23.687 12.6562 23.7814 12.0312 23.7814ZM15.9375 6.79467V20.384C15.9375 20.8559 16.1406 21.2569 16.5469 21.5872C16.9531 21.9175 17.4375 22.0827 18 22.0827C18.5417 22.0827 19.0104 21.8656 19.4062 21.4315C19.8021 20.9974 20.0208 20.5539 20.0625 20.1009C19.5833 19.9499 19.1354 19.747 18.7188 19.4922C18.3021 19.2374 17.9479 18.9213 17.6562 18.5438C17.4896 18.3362 17.4271 18.1238 17.4688 17.9068C17.5104 17.6897 17.6458 17.5057 17.875 17.3547C18.1042 17.2037 18.3385 17.1471 18.5781 17.1849C18.8177 17.2226 19.0208 17.3453 19.1875 17.5529C19.4583 17.8926 19.7917 18.1522 20.1875 18.3315C20.5833 18.5108 21.0208 18.6004 21.5 18.6004C22.2917 18.6004 22.9688 18.3551 23.5312 17.8643C24.0938 17.3736 24.375 16.7224 24.375 15.9109C24.375 15.741 24.3542 15.5664 24.3125 15.3871C24.2708 15.2078 24.2292 15.0238 24.1875 14.835C23.8125 15.0804 23.401 15.2644 22.9531 15.3871C22.5052 15.5098 22.0417 15.5711 21.5625 15.5711C21.2917 15.5711 21.0677 15.4909 20.8906 15.3305C20.7135 15.1701 20.625 14.9672 20.625 14.7218C20.625 14.4764 20.7135 14.2735 20.8906 14.1131C21.0677 13.9527 21.2917 13.8725 21.5625 13.8725C22.3542 13.8725 23.0208 13.6082 23.5625 13.0797C24.1042 12.5513 24.375 11.919 24.375 11.1829C24.375 10.4657 24.0833 9.85228 23.5 9.34268C22.9167 8.83308 22.25 8.5594 21.5 8.52165C21.2917 8.97463 20.9948 9.37571 20.6094 9.72488C20.224 10.074 19.7812 10.3336 19.2812 10.5034C19.0312 10.5978 18.7917 10.5931 18.5625 10.4893C18.3333 10.3855 18.1771 10.2203 18.0938 9.99383C18.0104 9.76734 18.0208 9.54557 18.125 9.32852C18.2292 9.11147 18.4062 8.96519 18.6562 8.8897C19.0312 8.77645 19.3385 8.54996 19.5781 8.21023C19.8177 7.8705 19.9375 7.48358 19.9375 7.04947C19.9375 6.50213 19.7396 6.03971 19.3438 5.66223C18.9479 5.28475 18.4792 5.09601 17.9375 5.09601C17.3958 5.09601 16.9271 5.26116 16.5312 5.59145C16.1354 5.92175 15.9375 6.32282 15.9375 6.79467ZM14.0625 20.384V6.79467C14.0625 6.32282 13.8698 5.92175 13.4844 5.59145C13.099 5.26116 12.625 5.09601 12.0625 5.09601C11.5208 5.09601 11.0469 5.28475 10.6406 5.66223C10.2344 6.03971 10.0312 6.50213 10.0312 7.04947C10.0312 7.48358 10.1458 7.86578 10.375 8.19608C10.6042 8.52637 10.9062 8.74814 11.2812 8.86139C11.5312 8.93688 11.7135 9.08316 11.8281 9.30021C11.9427 9.51726 11.9583 9.7296 11.875 9.93721C11.7708 10.1637 11.599 10.3336 11.3594 10.4468C11.1198 10.5601 10.875 10.5695 10.625 10.4751C10.125 10.3241 9.6875 10.074 9.3125 9.72488C8.9375 9.37571 8.64583 8.97463 8.4375 8.52165C7.70833 8.57828 7.05729 8.85667 6.48438 9.35683C5.91146 9.857 5.625 10.4657 5.625 11.1829C5.625 11.919 5.89583 12.5513 6.4375 13.0797C6.97917 13.6082 7.64583 13.8725 8.4375 13.8725C8.70833 13.8725 8.93229 13.9527 9.10938 14.1131C9.28646 14.2735 9.375 14.4764 9.375 14.7218C9.375 14.9672 9.28646 15.1701 9.10938 15.3305C8.93229 15.4909 8.70833 15.5711 8.4375 15.5711C7.95833 15.5711 7.49479 15.5051 7.04688 15.3729C6.59896 15.2408 6.1875 15.0615 5.8125 14.835C5.75 14.986 5.70312 15.1465 5.67188 15.3163C5.64062 15.4862 5.625 15.6561 5.625 15.8259C5.625 16.6375 5.90104 17.3028 6.45312 17.8219C7.00521 18.3409 7.67708 18.6004 8.46875 18.6004C8.92708 18.6004 9.35938 18.506 9.76562 18.3173C10.1719 18.1286 10.5104 17.8738 10.7812 17.5529C10.9479 17.3642 11.1562 17.2462 11.4062 17.199C11.6562 17.1518 11.8854 17.2037 12.0938 17.3547C12.3021 17.5057 12.4323 17.6945 12.4844 17.9209C12.5365 18.1474 12.4792 18.3551 12.3125 18.5438C12.0208 18.9213 11.6719 19.2374 11.2656 19.4922C10.8594 19.747 10.4167 19.9499 9.9375 20.1009C9.97917 20.5539 10.1979 20.9974 10.5938 21.4315C10.9896 21.8656 11.4688 22.0827 12.0312 22.0827C12.5938 22.0827 13.0729 21.9175 13.4688 21.5872C13.8646 21.2569 14.0625 20.8559 14.0625 20.384Z" fill="#D3DDDC"/>
</svg>
