<svg width="20" height="20" viewBox="0 0 20 20" fill="none" xmlns="http://www.w3.org/2000/svg">
<path d="M2.9165 16.6667C2.58317 16.6667 2.2915 16.5417 2.0415 16.2917C1.7915 16.0417 1.6665 15.75 1.6665 15.4167V4.58333C1.6665 4.25 1.7915 3.95833 2.0415 3.70833C2.2915 3.45833 2.58317 3.33333 2.9165 3.33333H17.0832C17.4165 3.33333 17.7082 3.45833 17.9582 3.70833C18.2082 3.95833 18.3332 4.25 18.3332 4.58333V15.4167C18.3332 15.75 18.2082 16.0417 17.9582 16.2917C17.7082 16.5417 17.4165 16.6667 17.0832 16.6667H2.9165ZM9.99984 10.375L2.9165 5.72917V15.4167H17.0832V5.72917L9.99984 10.375ZM9.99984 9.125L16.9998 4.58333H3.02067L9.99984 9.125ZM2.9165 5.72917V4.58333V15.4167V5.72917Z" fill="#23F3A8"/>
</svg>
