<svg width="22" height="24" viewBox="0 0 22 24" fill="none" xmlns="http://www.w3.org/2000/svg">
<path d="M10.9996 16.7872C13.4542 16.7872 15.4441 14.7256 15.4441 12.1827C15.4441 9.63975 13.4542 7.57828 10.9996 7.57828C8.54502 7.57828 6.55518 9.63975 6.55518 12.1827C6.55518 14.7256 8.54502 16.7872 10.9996 16.7872Z" stroke="#23F3A8" stroke-width="1.85996" stroke-linecap="round" stroke-linejoin="round"/>
<path d="M1 16.7874V7.57851C1 4.39982 3.48731 1.82297 6.55556 1.82297H15.4444C18.5127 1.82297 21 4.39982 21 7.57851V16.7874C21 19.9661 18.5127 22.5429 15.4444 22.5429H6.55556C3.48731 22.5429 1 19.9661 1 16.7874Z" stroke="#23F3A8" stroke-width="1.85996"/>
<path d="M17.1113 5.86318L17.1214 5.8505" stroke="#23F3A8" stroke-width="1.85996" stroke-linecap="round" stroke-linejoin="round"/>
</svg>
