<svg width="30" height="28" viewBox="0 0 30 28" fill="none" xmlns="http://www.w3.org/2000/svg">
<path d="M15 9.37098L11.0625 5.80377L15 2.23657L18.9375 5.80377L15 9.37098ZM1.25 22.6489V18.1191C1.25 17.5718 1.46354 17.1046 1.89062 16.7177C2.31771 16.3308 2.83333 16.1373 3.4375 16.1373H7.84375C8.19792 16.1373 8.53646 16.2176 8.85938 16.378C9.18229 16.5384 9.45833 16.7602 9.6875 17.0433C10.2917 17.836 11.0625 18.4494 12 18.8835C12.9375 19.3176 13.9375 19.5347 15 19.5347C16.0625 19.5347 17.0625 19.3176 18 18.8835C18.9375 18.4494 19.7188 17.836 20.3438 17.0433C20.5729 16.7602 20.8438 16.5384 21.1562 16.378C21.4688 16.2176 21.8021 16.1373 22.1562 16.1373H26.5625C27.1667 16.1373 27.6823 16.3308 28.1094 16.7177C28.5365 17.1046 28.75 17.5718 28.75 18.1191V22.6489H20.625V19.2799C19.875 19.9027 19.0156 20.384 18.0469 20.7237C17.0781 21.0635 16.0625 21.2333 15 21.2333C13.9375 21.2333 12.9271 21.0635 11.9688 20.7237C11.0104 20.384 10.1458 19.9027 9.375 19.2799V22.6489H1.25ZM5 14.1556C4.0625 14.1556 3.25521 13.8489 2.57812 13.2354C1.90104 12.622 1.5625 11.8907 1.5625 11.0413C1.5625 10.1731 1.90104 9.43704 2.57812 8.83307C3.25521 8.22909 4.0625 7.92711 5 7.92711C5.95833 7.92711 6.77083 8.22909 7.4375 8.83307C8.10417 9.43704 8.4375 10.1731 8.4375 11.0413C8.4375 11.8907 8.10417 12.622 7.4375 13.2354C6.77083 13.8489 5.95833 14.1556 5 14.1556ZM25 14.1556C24.0625 14.1556 23.2552 13.8489 22.5781 13.2354C21.901 12.622 21.5625 11.8907 21.5625 11.0413C21.5625 10.1731 21.901 9.43704 22.5781 8.83307C23.2552 8.22909 24.0625 7.92711 25 7.92711C25.9583 7.92711 26.7708 8.22909 27.4375 8.83307C28.1042 9.43704 28.4375 10.1731 28.4375 11.0413C28.4375 11.8907 28.1042 12.622 27.4375 13.2354C26.7708 13.8489 25.9583 14.1556 25 14.1556Z" fill="#D3DDDC"/>
</svg>
