<svg width="15" height="15" viewBox="0 0 10 10" fill="none" xmlns="http://www.w3.org/2000/svg">
<g clip-path="url(#clip0_159_648)">
<path d="M3.3335 7.50004L5.00016 6.22921L6.66683 7.50004L6.00016 5.44796L7.66683 4.27087H5.63558L5.00016 2.15629L4.35433 4.27087H2.32308L3.98975 5.44796L3.3335 7.50004ZM5.00016 9.16671C4.43072 9.16671 3.89252 9.05733 3.38558 8.83858C2.87863 8.61983 2.43593 8.32122 2.05745 7.94275C1.67898 7.56428 1.38037 7.12157 1.16162 6.61462C0.942871 6.10768 0.833496 5.56948 0.833496 5.00004C0.833496 4.42365 0.942871 3.88198 1.16162 3.37504C1.38037 2.8681 1.67898 2.42712 2.05745 2.05212C2.43593 1.67712 2.87863 1.38025 3.38558 1.1615C3.89252 0.942749 4.43072 0.833374 5.00016 0.833374C5.57655 0.833374 6.11822 0.942749 6.62516 1.1615C7.13211 1.38025 7.57308 1.67712 7.94808 2.05212C8.32308 2.42712 8.61995 2.8681 8.8387 3.37504C9.05745 3.88198 9.16683 4.42365 9.16683 5.00004C9.16683 5.56948 9.05745 6.10768 8.8387 6.61462C8.61995 7.12157 8.32308 7.56428 7.94808 7.94275C7.57308 8.32122 7.13211 8.61983 6.62516 8.83858C6.11822 9.05733 5.57655 9.16671 5.00016 9.16671ZM5.00016 8.54171C5.98627 8.54171 6.82308 8.19622 7.51058 7.50525C8.19808 6.81428 8.54183 5.97921 8.54183 5.00004C8.54183 4.01393 8.19808 3.17712 7.51058 2.48962C6.82308 1.80212 5.98627 1.45837 5.00016 1.45837C4.021 1.45837 3.18593 1.80212 2.49495 2.48962C1.80398 3.17712 1.4585 4.01393 1.4585 5.00004C1.4585 5.97921 1.80398 6.81428 2.49495 7.50525C3.18593 8.19622 4.021 8.54171 5.00016 8.54171Z" fill="#D3DDDC"/>
</g>
<defs>
<clipPath id="clip0_159_648">
<rect width="10" height="10" fill="white"/>
</clipPath>
</defs>
</svg>
