<svg width="15" height="15" viewBox="0 0 10 10" fill="none" xmlns="http://www.w3.org/2000/svg">
<path d="M0.833496 8.33329V7.70829H3.3335C3.19461 7.07635 2.89079 6.52253 2.42204 6.04683C1.95329 5.57114 1.42377 5.2569 0.833496 5.10413C0.972385 5.0694 1.10954 5.04336 1.24495 5.026C1.38037 5.00864 1.521 4.99996 1.66683 4.99996C2.59738 4.99996 3.38558 5.32288 4.03141 5.96871C4.67725 6.61454 5.00016 7.40274 5.00016 8.33329H0.833496ZM5.62516 8.33329C5.62516 8.04163 5.59738 7.78642 5.54183 7.56767C5.48627 7.34892 5.41683 7.1319 5.3335 6.91663C5.61127 6.30551 6.02794 5.83329 6.5835 5.49996C7.13905 5.16663 7.72238 4.99996 8.3335 4.99996C8.47933 4.99996 8.61995 5.00864 8.75537 5.026C8.89079 5.04336 9.02794 5.0694 9.16683 5.10413C8.57655 5.2569 8.04183 5.57461 7.56266 6.05725C7.0835 6.53989 6.78488 7.09024 6.66683 7.70829H9.16683V8.33329H5.62516ZM5.021 6.32288C4.9585 5.7951 5.00363 5.30204 5.15641 4.84371C5.30919 4.38538 5.53315 3.98607 5.82829 3.64579C6.12343 3.30551 6.47933 3.03468 6.896 2.83329C7.31266 2.6319 7.75363 2.52426 8.21891 2.51038C7.83002 2.75343 7.4637 3.08503 7.11995 3.50517C6.7762 3.92531 6.55919 4.37496 6.46891 4.85413C6.16336 4.99996 5.88558 5.20308 5.63558 5.4635C5.38558 5.72392 5.18072 6.01038 5.021 6.32288ZM4.38558 5.53121C4.27447 5.42704 4.15294 5.32288 4.021 5.21871C3.88905 5.11454 3.77794 5.03468 3.68766 4.97913C3.7085 4.89579 3.72412 4.80378 3.73454 4.70308C3.74495 4.60239 3.75016 4.52079 3.75016 4.45829C3.75016 3.93051 3.66683 3.43051 3.50016 2.95829C3.3335 2.48607 3.09738 2.05551 2.79183 1.66663C3.27794 1.86107 3.7085 2.16836 4.0835 2.5885C4.4585 3.00864 4.72238 3.48954 4.87516 4.03121C4.75016 4.25343 4.64426 4.49475 4.55745 4.75517C4.47065 5.01558 4.41336 5.27427 4.38558 5.53121Z" fill="#D3DDDC"/>
</svg>
