<svg width="20" height="20" viewBox="0 0 20 20" fill="none" xmlns="http://www.w3.org/2000/svg">
<path d="M10.002 9.79167C10.4036 9.79167 10.7467 9.64869 11.0314 9.36273C11.3161 9.07679 11.4585 8.73304 11.4585 8.33148C11.4585 7.92994 11.3155 7.58681 11.0296 7.30209C10.7436 7.01737 10.3999 6.875 9.99831 6.875C9.59677 6.875 9.25363 7.01798 8.96891 7.30394C8.68419 7.58989 8.54183 7.93364 8.54183 8.33519C8.54183 8.73673 8.68481 9.07987 8.97077 9.36459C9.25671 9.64931 9.60046 9.79167 10.002 9.79167ZM10.0002 16.6875C11.8474 15.0069 13.212 13.4826 14.0939 12.1146C14.9759 10.7465 15.4168 9.54167 15.4168 8.5C15.4168 6.86403 14.894 5.52448 13.8482 4.48136C12.8025 3.43823 11.5198 2.91667 10.0002 2.91667C8.48048 2.91667 7.19779 3.43823 6.15208 4.48136C5.10636 5.52448 4.5835 6.86403 4.5835 8.5C4.5835 9.54167 5.03488 10.7465 5.93766 12.1146C6.84044 13.4826 8.19461 15.0069 10.0002 16.6875ZM10.0002 18.3333C7.76405 16.4306 6.09391 14.6632 4.98975 13.0313C3.88558 11.3993 3.3335 9.88889 3.3335 8.5C3.3335 6.41667 4.00363 4.75695 5.34391 3.52084C6.68419 2.28473 8.23627 1.66667 10.0002 1.66667C11.7641 1.66667 13.3161 2.28473 14.6564 3.52084C15.9967 4.75695 16.6668 6.41667 16.6668 8.5C16.6668 9.88889 16.1147 11.3993 15.0106 13.0313C13.9064 14.6632 12.2363 16.4306 10.0002 18.3333Z" fill="#23F3A8"/>
</svg>
