<svg width="75" height="28" viewBox="0 0 75 28" fill="none" xmlns="http://www.w3.org/2000/svg">
<path d="M1.47454 16.2802V15.5286C1.47454 8.05698 6.85852 2 13.5 2C20.1415 2 25.5254 8.05698 25.5254 15.5286V16.2802" stroke="#23F3A8" stroke-width="1.5625" stroke-linecap="round" stroke-linejoin="round"/>
<path d="M1 22.2006V19.3792C1 17.9998 1.93887 16.7972 3.27721 16.4626L4.00636 16.2803L5.89207 15.8089C6.46131 15.6667 7.01273 16.0972 7.01273 16.6839V24.8959C7.01273 25.4826 6.46131 25.9131 5.89207 25.7709L3.27721 25.1172C1.93887 24.7826 1 23.58 1 22.2006Z" stroke="#23F3A8" stroke-width="1.5625" stroke-linecap="round" stroke-linejoin="round"/>
<path d="M26 22.2006V19.3792C26 17.9998 25.0611 16.7972 23.7228 16.4626L22.9936 16.2803L21.1079 15.8089C20.5386 15.6667 19.9873 16.0972 19.9873 16.6839V24.8959C19.9873 25.4826 20.5386 25.9131 21.1079 25.7709L23.7228 25.1172C25.0611 24.7826 26 23.58 26 22.2006Z" stroke="#23F3A8" stroke-width="1.5625" stroke-linecap="round" stroke-linejoin="round"/>
<path d="M37.488 6.16C40.016 6.16 41.96 6.832 43.32 8.176C44.696 9.504 45.384 11.432 45.384 13.96C45.384 16.568 44.696 18.56 43.32 19.936C41.96 21.312 40.016 22 37.488 22H32.496V6.16H37.488ZM37.584 20.896C39.696 20.896 41.312 20.296 42.432 19.096C43.568 17.896 44.136 16.184 44.136 13.96C44.136 11.816 43.568 10.168 42.432 9.016C41.312 7.848 39.696 7.264 37.584 7.264H33.696V20.896H37.584ZM53.907 9.76C55.027 9.76 56.011 10.008 56.859 10.504C57.723 11 58.395 11.72 58.875 12.664C59.371 13.592 59.619 14.704 59.619 16C59.619 17.296 59.371 18.416 58.875 19.36C58.395 20.288 57.723 21 56.859 21.496C56.011 21.992 55.027 22.24 53.907 22.24C52.787 22.24 51.795 21.992 50.931 21.496C50.083 21 49.411 20.288 48.915 19.36C48.435 18.416 48.195 17.296 48.195 16C48.195 14.704 48.435 13.592 48.915 12.664C49.411 11.72 50.083 11 50.931 10.504C51.795 10.008 52.787 9.76 53.907 9.76ZM53.907 10.792C52.995 10.792 52.203 11 51.531 11.416C50.859 11.832 50.331 12.432 49.947 13.216C49.579 13.984 49.395 14.912 49.395 16C49.395 17.072 49.579 18 49.947 18.784C50.331 19.568 50.859 20.168 51.531 20.584C52.203 21 52.995 21.208 53.907 21.208C54.819 21.208 55.611 21 56.283 20.584C56.955 20.168 57.475 19.568 57.843 18.784C58.227 18 58.419 17.072 58.419 16C58.419 14.912 58.227 13.984 57.843 13.216C57.475 12.432 56.955 11.832 56.283 11.416C55.611 11 54.819 10.792 53.907 10.792ZM67.9461 9.76C69.0661 9.76 70.0501 10.008 70.8981 10.504C71.7621 11 72.4341 11.72 72.9141 12.664C73.4101 13.592 73.6581 14.704 73.6581 16C73.6581 17.296 73.4101 18.416 72.9141 19.36C72.4341 20.288 71.7621 21 70.8981 21.496C70.0501 21.992 69.0661 22.24 67.9461 22.24C66.8261 22.24 65.8341 21.992 64.9701 21.496C64.1221 21 63.4501 20.288 62.9541 19.36C62.4741 18.416 62.2341 17.296 62.2341 16C62.2341 14.704 62.4741 13.592 62.9541 12.664C63.4501 11.72 64.1221 11 64.9701 10.504C65.8341 10.008 66.8261 9.76 67.9461 9.76ZM67.9461 10.792C67.0341 10.792 66.2421 11 65.5701 11.416C64.8981 11.832 64.3701 12.432 63.9861 13.216C63.6181 13.984 63.4341 14.912 63.4341 16C63.4341 17.072 63.6181 18 63.9861 18.784C64.3701 19.568 64.8981 20.168 65.5701 20.584C66.2421 21 67.0341 21.208 67.9461 21.208C68.8581 21.208 69.6501 21 70.3221 20.584C70.9941 20.168 71.5141 19.568 71.8821 18.784C72.2661 18 72.4581 17.072 72.4581 16C72.4581 14.912 72.2661 13.984 71.8821 13.216C71.5141 12.432 70.9941 11.832 70.3221 11.416C69.6501 11 68.8581 10.792 67.9461 10.792Z" fill="#E9FEF6"/>
</svg>
