<svg width="30" height="30" viewBox="0 0 30 30" fill="none" xmlns="http://www.w3.org/2000/svg">
<path d="M2.5 25V23.125H10C9.58333 21.2292 8.67188 19.5677 7.26562 18.1406C5.85938 16.7135 4.27083 15.7708 2.5 15.3125C2.91667 15.2083 3.32812 15.1302 3.73438 15.0781C4.14062 15.026 4.5625 15 5 15C7.79167 15 10.1562 15.9688 12.0938 17.9062C14.0312 19.8438 15 22.2083 15 25H2.5ZM16.875 25C16.875 24.125 16.7917 23.3594 16.625 22.7031C16.4583 22.0469 16.25 21.3958 16 20.75C16.8333 18.9167 18.0833 17.5 19.75 16.5C21.4167 15.5 23.1667 15 25 15C25.4375 15 25.8594 15.026 26.2656 15.0781C26.6719 15.1302 27.0833 15.2083 27.5 15.3125C25.7292 15.7708 24.125 16.724 22.6875 18.1719C21.25 19.6198 20.3542 21.2708 20 23.125H27.5V25H16.875ZM15.0625 18.9688C14.875 17.3854 15.0104 15.9062 15.4688 14.5312C15.9271 13.1562 16.599 11.9583 17.4844 10.9375C18.3698 9.91667 19.4375 9.10417 20.6875 8.5C21.9375 7.89583 23.2604 7.57292 24.6562 7.53125C23.4896 8.26042 22.3906 9.25521 21.3594 10.5156C20.3281 11.776 19.6771 13.125 19.4062 14.5625C18.4896 15 17.6562 15.6094 16.9062 16.3906C16.1562 17.1719 15.5417 18.0312 15.0625 18.9688ZM13.1562 16.5938C12.8229 16.2812 12.4583 15.9688 12.0625 15.6562C11.6667 15.3438 11.3333 15.1042 11.0625 14.9375C11.125 14.6875 11.1719 14.4115 11.2031 14.1094C11.2344 13.8073 11.25 13.5625 11.25 13.375C11.25 11.7917 11 10.2917 10.5 8.875C10 7.45833 9.29167 6.16667 8.375 5C9.83333 5.58333 11.125 6.50521 12.25 7.76562C13.375 9.02604 14.1667 10.4688 14.625 12.0938C14.25 12.7604 13.9323 13.4844 13.6719 14.2656C13.4115 15.0469 13.2396 15.8229 13.1562 16.5938Z" fill="#181818"/>
</svg>
