<svg width="20" height="20" viewBox="0 0 20 20" fill="none" xmlns="http://www.w3.org/2000/svg">
<path d="M9.99831 19.1667C9.59677 19.1667 9.25363 19.0237 8.96891 18.7377C8.68419 18.4518 8.54183 18.108 8.54183 17.7065C8.54183 17.3049 8.68481 16.9618 8.97077 16.6771C9.25671 16.3924 9.60046 16.25 10.002 16.25C10.4036 16.25 10.7467 16.393 11.0314 16.6789C11.3161 16.9649 11.4585 17.3086 11.4585 17.7102C11.4585 18.1117 11.3155 18.4549 11.0296 18.7396C10.7436 19.0243 10.3999 19.1667 9.99831 19.1667ZM4.78998 3.75C4.38843 3.75 4.0453 3.60702 3.76058 3.32106C3.47586 3.03512 3.3335 2.69137 3.3335 2.28981C3.3335 1.88827 3.47648 1.54514 3.76243 1.26042C4.04838 0.975695 4.39213 0.833334 4.79368 0.833334C5.19523 0.833334 5.53836 0.976313 5.82308 1.26227C6.1078 1.54822 6.25016 1.89197 6.25016 2.29352C6.25016 2.69506 6.10718 3.0382 5.82123 3.32292C5.53528 3.60764 5.19153 3.75 4.78998 3.75ZM4.78998 8.875C4.38843 8.875 4.0453 8.73202 3.76058 8.44606C3.47586 8.16012 3.3335 7.81637 3.3335 7.41481C3.3335 7.01327 3.47648 6.67014 3.76243 6.38542C4.04838 6.1007 4.39213 5.95833 4.79368 5.95833C5.19523 5.95833 5.53836 6.10131 5.82308 6.38727C6.1078 6.67322 6.25016 7.01697 6.25016 7.41852C6.25016 7.82006 6.10718 8.1632 5.82123 8.44792C5.53528 8.73264 5.19153 8.875 4.78998 8.875ZM4.78998 14.0208C4.38843 14.0208 4.0453 13.8779 3.76058 13.5919C3.47586 13.306 3.3335 12.9622 3.3335 12.5606C3.3335 12.1591 3.47648 11.816 3.76243 11.5313C4.04838 11.2465 4.39213 11.1042 4.79368 11.1042C5.19523 11.1042 5.53836 11.2471 5.82308 11.5331C6.1078 11.819 6.25016 12.1628 6.25016 12.5644C6.25016 12.9659 6.10718 13.309 5.82123 13.5938C5.53528 13.8785 5.19153 14.0208 4.78998 14.0208ZM15.2066 3.75C14.8051 3.75 14.462 3.60702 14.1772 3.32106C13.8925 3.03512 13.7502 2.69137 13.7502 2.28981C13.7502 1.88827 13.8931 1.54514 14.1791 1.26042C14.465 0.975695 14.8088 0.833334 15.2103 0.833334C15.6119 0.833334 15.955 0.976313 16.2397 1.26227C16.5245 1.54822 16.6668 1.89197 16.6668 2.29352C16.6668 2.69506 16.5238 3.0382 16.2379 3.32292C15.9519 3.60764 15.6082 3.75 15.2066 3.75ZM9.99831 14.0208C9.59677 14.0208 9.25363 13.8779 8.96891 13.5919C8.68419 13.306 8.54183 12.9622 8.54183 12.5606C8.54183 12.1591 8.68481 11.816 8.97077 11.5313C9.25671 11.2465 9.60046 11.1042 10.002 11.1042C10.4036 11.1042 10.7467 11.2471 11.0314 11.5331C11.3161 11.819 11.4585 12.1628 11.4585 12.5644C11.4585 12.9659 11.3155 13.309 11.0296 13.5938C10.7436 13.8785 10.3999 14.0208 9.99831 14.0208ZM15.2066 14.0208C14.8051 14.0208 14.462 13.8779 14.1772 13.5919C13.8925 13.306 13.7502 12.9622 13.7502 12.5606C13.7502 12.1591 13.8931 11.816 14.1791 11.5313C14.465 11.2465 14.8088 11.1042 15.2103 11.1042C15.6119 11.1042 15.955 11.2471 16.2397 11.5331C16.5245 11.819 16.6668 12.1628 16.6668 12.5644C16.6668 12.9659 16.5238 13.309 16.2379 13.5938C15.9519 13.8785 15.6082 14.0208 15.2066 14.0208ZM15.2066 8.875C14.8051 8.875 14.462 8.73202 14.1772 8.44606C13.8925 8.16012 13.7502 7.81637 13.7502 7.41481C13.7502 7.01327 13.8931 6.67014 14.1791 6.38542C14.465 6.1007 14.8088 5.95833 15.2103 5.95833C15.6119 5.95833 15.955 6.10131 16.2397 6.38727C16.5245 6.67322 16.6668 7.01697 16.6668 7.41852C16.6668 7.82006 16.5238 8.1632 16.2379 8.44792C15.9519 8.73264 15.6082 8.875 15.2066 8.875ZM9.99831 8.875C9.59677 8.875 9.25363 8.73202 8.96891 8.44606C8.68419 8.16012 8.54183 7.81637 8.54183 7.41481C8.54183 7.01327 8.68481 6.67014 8.97077 6.38542C9.25671 6.1007 9.60046 5.95833 10.002 5.95833C10.4036 5.95833 10.7467 6.10131 11.0314 6.38727C11.3161 6.67322 11.4585 7.01697 11.4585 7.41852C11.4585 7.82006 11.3155 8.1632 11.0296 8.44792C10.7436 8.73264 10.3999 8.875 9.99831 8.875ZM9.99831 3.75C9.59677 3.75 9.25363 3.60702 8.96891 3.32106C8.68419 3.03512 8.54183 2.69137 8.54183 2.28981C8.54183 1.88827 8.68481 1.54514 8.97077 1.26042C9.25671 0.975695 9.60046 0.833334 10.002 0.833334C10.4036 0.833334 10.7467 0.976313 11.0314 1.26227C11.3161 1.54822 11.4585 1.89197 11.4585 2.29352C11.4585 2.69506 11.3155 3.0382 11.0296 3.32292C10.7436 3.60764 10.3999 3.75 9.99831 3.75Z" fill="#23F3A8"/>
</svg>
